<svg version="1.2" xmlns="http://www.w3.org/2000/svg" viewBox="0 0 380 78" width="380" height="78">
	<title>dikodev-logo-svg</title>
	<style>
		.s0 { fill: none;stroke: #17b6ba;stroke-width: 2.8 } 
		.s1 { fill: #17b6ba } 
	</style>
	<g id="SvgjsG1307">
		<g id="Layer">
			<path id="Layer" class="s0" d="m8 9h68v67.8h-68z"/>
			<g id="Layer">
				<path id="Layer" class="s0" d="m20.8 44.9l11.7 11.7-11.7 11.8"/>
				<path id="Layer" class="s0" d="m32.5 68.4h17.3"/>
			</g>
		</g>
	</g>
	<g id="SvgjsG1308">
		<path id="Layer" fill-rule="evenodd" class="s1" d="m110.8 16.6q13.5 0 21.1 7.3 7.7 7.3 7.8 20 0 7.4-3.4 13.5-3.3 6-9.7 9.5-6.3 3.5-15.5 3.5h-17.1v-53.8zm-1.1 49.3q11.6 0 18.3-5.9 6.6-5.8 6.7-16.1 0-10.9-6.6-16.8-6.7-5.8-18.6-5.9h-10.5v44.7zm40.7-30.6h4.6v35.1h-4.6zm2.3-17.3q1.5 0 2.5 1 0.9 1 0.9 2.4 0 1.5-0.9 2.4-1 1-2.5 1-1.4 0-2.4-1-1-0.9-1-2.4 0-1.4 1-2.4 1-1 2.4-1zm15.2-5h4.6v38.3l17.3-16h6.7l-18.1 16.1 20.2 19h-6.9l-19.2-18.5v18.5h-4.6zm53 21.4q8.1 0 13.2 5.2 5.2 5.3 5.3 13.3 0 8.1-5.3 13.2-5.3 5.1-13.2 5.2-8.3-0.1-13.3-5.3-5.1-5.2-5.1-13.1 0-8.2 5.2-13.3 5.2-5.1 13.2-5.2zm-13.9 18.5q0 6.3 4 10.3 3.9 4 9.9 4 6.2 0 10.1-4.1 3.8-4.1 3.8-10.2 0-6.1-3.8-10.2-3.8-4.1-10.2-4.2-6.1 0-9.9 4.1-3.8 4.1-3.9 10.3zm59.9-36.3q13.5 0 21.2 7.3 7.6 7.3 7.8 20 0 7.4-3.4 13.5-3.4 6-9.7 9.5-6.4 3.5-15.6 3.5h-17.1v-53.8zm-1 49.2q11.5 0 18.2-5.8 6.7-5.8 6.8-16.1 0-10.9-6.7-16.8-6.6-5.8-18.6-5.9h-10.4v44.6zm55.5-31.4q7.3 0 11.8 4.7 4.6 4.7 4.7 12.2v2.7h-29.5q0.3 5.9 3.9 9.5 3.6 3.6 9.4 3.7 3.6 0 6.8-1.7 3.2-1.7 5-4.5l3.3 2.8q-4.9 7.5-15.2 7.5-8-0.1-12.9-5.2-4.8-5.2-4.9-13.3 0-7.9 5-13.1 5-5.2 12.6-5.3zm11.9 15.5q0-4.8-3.6-8.1-3.5-3.3-8.6-3.3-5 0-8.5 3.3-3.6 3.3-4.2 8.1zm15-14.6l11.6 30.2 11.4-30.2h4.7l-13.8 35.1h-4.8l-14.3-35.1z"/>
	</g>
</svg>